# xmcd CD database file
#
# Track frame offsets:
#	150
#	37365
#	60773
#	95821
#	125066
#	157040
#	177417
#	205149
#	246000
#	276421
#
# Disc length: 3737 seconds
#
# Revision: 0
# Processed by: cddbd v1.4PL0 Copyright (c) Steve Scherf et al.
# Submitted via: CDex 1.50Beta7
#
DISCID=970e970a
DTITLE=Fred Walker and Friends - Blues in a Red Dress
DYEAR=1900
DGENRE=Blues
TTITLE0=Nyte Flyte
TTITLE1=Feel Like Making Love
TTITLE2=Blues in a Red Dress
TTITLE3=No More War
TTITLE4=We're Gonna Miss You, Cindy
TTITLE5=Amazing Grace
TTITLE6=In My Heart
TTITLE7=Going Back to Houston
TTITLE8=Cruzyn and Bluzyn
TTITLE9=Baby, Meet Me with your Black Drawers On
EXTD=
EXTT0=
EXTT1=
EXTT2=
EXTT3=
EXTT4=
EXTT5=
EXTT6=
EXTT7=
EXTT8=
EXTT9=
PLAYORDER=
